<svg xmlns="http://www.w3.org/2000/svg" xmlns:xlink="http://www.w3.org/1999/xlink" version="1.1" x="0px" y="0px" viewBox="0 0 50 62.5" enable-background="new 0 0 50 50" xml:space="preserve"><path d="M38.343,16.04L7.545,18.242c0.882,0.597,1.96,1.796,2.583,3.586l-6.083,0.236c-0.219,0.903-0.399,1.769-0.399,3.091  c0,3.742,1.611,6.694,3.706,6.896l-0.001,0.019l30.845,2.202l0.002-0.027c3.194,0.335,5.448-4.073,5.448-9.089  C43.645,20.137,41.287,16.04,38.343,16.04z M8.029,31.212v-0.045c-2.655,0-3.481-3.587-3.481-6.012c0-0.765,0.073-1.509,0.219-2.215  l29.581-1.148c-0.509,0.699-0.846,1.723-0.917,2.912h-0.025c0,0.328,0,0.576,0,0.903h0.013c0.088,3.341,1.135,6.158,2.681,7.609  L8.029,31.212z M35.942,21.73l0.006,0c0.715,0.003,1.504,1.202,1.62,2.974h-3.245C34.44,22.933,35.228,21.734,35.942,21.73z   M38.524,33.369c-2.207,0-4.078-3.511-4.203-7.763h4.165c0-1.951-0.593-4.777-2.561-4.777v-0.002l-24.702,0.959  c-0.547-1.338-0.884-1.764-1.557-2.79l28.708-2.054c2.325,0,4.365,3.838,4.365,8.213C42.741,29.607,40.811,33.369,38.524,33.369z"/></svg>
