<?xml version="1.0" encoding="iso-8859-1"?>
<!-- Generator: Adobe Illustrator 18.0.0, SVG Export Plug-In . SVG Version: 6.00 Build 0)  -->
<!DOCTYPE svg PUBLIC "-//W3C//DTD SVG 1.1//EN" "http://www.w3.org/Graphics/SVG/1.1/DTD/svg11.dtd">
<svg version="1.1" id="Capa_1" xmlns="http://www.w3.org/2000/svg" xmlns:xlink="http://www.w3.org/1999/xlink" x="0px" y="0px"
	 viewBox="0 0 59 59" style="enable-background:new 0 0 59 59;" xml:space="preserve">
<path stroke-width="1" d="M11,13V5c0-0.553-0.448-1-1-1H7.858C7.411,2.28,5.858,1,4,1C1.794,1,0,2.794,0,5s1.794,4,4,4c1.858,0,3.411-1.28,3.858-3H9
	v7v1v24v1v9c0,0.553,0.448,1,1,1h7.031C15.806,49.912,15,51.359,15,53c0,2.757,2.243,5,5,5s5-2.243,5-5c0-1.641-0.806-3.088-2.031-4
	h18.062C39.806,49.912,39,51.359,39,53c0,2.757,2.243,5,5,5s5-2.243,5-5c0-1.641-0.806-3.088-2.031-4H53c0.552,0,1-0.447,1-1
	s-0.448-1-1-1H11v-8h48V13H11z M4,7C2.897,7,2,6.103,2,5s0.897-2,2-2c0.737,0,1.375,0.405,1.722,1H5C4.448,4,4,4.447,4,5
	s0.448,1,1,1h0.722C5.375,6.595,4.737,7,4,7z M20,56c-1.654,0-3-1.346-3-3s1.346-3,3-3s3,1.346,3,3S21.654,56,20,56z M44,56
	c-1.654,0-3-1.346-3-3s1.346-3,3-3s3,1.346,3,3S45.654,56,44,56z M41,21h-6v-6h6V21z M43,15h6v6h-6V15z M35,23h6v6h-6V23z M33,29h-6
	v-6h6V29z M33,21h-6v-6h6V21z M25,21h-6v-6h6V21z M17,21h-6v-6h6V21z M11,23h6v6h-6V23z M19,23h6v6h-6V23z M25,31v6h-6v-6H25z
	 M27,31h6v6h-6V31z M35,31h6v6h-6V31z M43,31h6v6h-6V31z M43,29v-6h6v6H43z M51,23h6v6h-6V23z M57,21h-6v-6h6V21z M11,31h6v6h-6V31z
	 M51,37v-6h6v6H51z"/>
<g>
</g>
<g>
</g>
<g>
</g>
<g>
</g>
<g>
</g>
<g>
</g>
<g>
</g>
<g>
</g>
<g>
</g>
<g>
</g>
<g>
</g>
<g>
</g>
<g>
</g>
<g>
</g>
<g>
</g>
</svg>
