<?xml version="1.0" standalone="no"?>
<!DOCTYPE svg PUBLIC "-//W3C//DTD SVG 20010904//EN"
 "http://www.w3.org/TR/2001/REC-SVG-20010904/DTD/svg10.dtd">
<svg version="1.0" xmlns="http://www.w3.org/2000/svg"
 width="170.000000pt" height="170.000000pt" viewBox="0 0 170.000000 170.000000"
 preserveAspectRatio="xMidYMid meet">
<metadata>
Created by potrace 1.15, written by Peter Selinger 2001-2017
</metadata>
<g transform="translate(0.000000,170.000000) scale(0.100000,-0.100000)"
fill="#000000" stroke="none">
<path d="M1086 1568 c-55 -28 -127 -105 -155 -166 -14 -29 -22 -55 -19 -58 11
-10 71 28 119 76 45 45 104 142 97 160 -2 4 -21 -1 -42 -12z"/>
<path d="M1040 1195 c-141 -47 -220 -48 -346 -4 -105 36 -154 35 -234 -6 -187
-95 -279 -311 -226 -536 53 -228 208 -478 337 -545 28 -14 36 -13 127 17 91
29 104 31 207 26 87 -3 124 -10 178 -31 65 -25 68 -25 107 -10 23 9 65 43 99
79 62 67 162 218 160 245 0 8 -24 33 -52 55 -102 80 -144 195 -135 365 6 101
34 173 92 238 l37 40 -35 27 c-40 31 -113 60 -171 69 -30 4 -65 -2 -145 -29z"/>
</g>
</svg>
