<?xml version="1.0" standalone="no"?>
<!DOCTYPE svg PUBLIC "-//W3C//DTD SVG 20010904//EN"
 "http://www.w3.org/TR/2001/REC-SVG-20010904/DTD/svg10.dtd">
<svg version="1.0" xmlns="http://www.w3.org/2000/svg"
 width="626.000000pt" height="626.000000pt" viewBox="0 0 626.000000 626.000000"
 preserveAspectRatio="xMidYMid meet">
<metadata>
Created by potrace 1.15, written by Peter Selinger 2001-2017
</metadata>
<g transform="translate(0.000000,626.000000) scale(0.100000,-0.100000)"
fill="#000000" stroke="none">
<path d="M880 6245 c-376 -75 -706 -361 -824 -717 -59 -176 -56 -41 -56 -2398
0 -2324 -2 -2215 49 -2380 46 -148 157 -325 278 -442 158 -154 361 -258 577
-297 40 -7 420 -11 1143 -11 l1083 0 0 1180 0 1180 -382 2 -383 3 0 520 0 520
383 3 382 2 0 253 c0 272 10 371 55 536 26 95 30 106 92 241 82 179 261 395
418 505 107 74 250 141 366 172 l104 26 493 4 492 4 0 -519 c0 -465 -2 -521
-16 -526 -9 -3 -207 -6 -441 -6 l-426 0 -41 -24 c-26 -16 -53 -45 -76 -82
l-35 -58 -3 -263 -3 -263 520 0 521 0 -2 -522 -3 -523 -517 -3 -518 -2 0
-1180 0 -1180 593 0 c376 0 615 4 653 11 454 81 812 439 893 893 15 83 15
4369 0 4452 -70 389 -357 727 -721 848 -176 59 -39 56 -2408 55 -1739 -1
-2188 -3 -2240 -14z"/>
</g>
</svg>
