<?xml version="1.0" standalone="no"?>
<!DOCTYPE svg PUBLIC "-//W3C//DTD SVG 20010904//EN"
 "http://www.w3.org/TR/2001/REC-SVG-20010904/DTD/svg10.dtd">
<svg version="1.0" xmlns="http://www.w3.org/2000/svg"
 width="512.000000pt" height="512.000000pt" viewBox="0 0 512.000000 512.000000"
 preserveAspectRatio="xMidYMid meet">
<metadata>
Created by potrace 1.15, written by Peter Selinger 2001-2017
</metadata>
<g transform="translate(0.000000,512.000000) scale(0.100000,-0.100000)"
fill="#000000" stroke="none">
<path d="M1710 4834 c-412 -18 -667 -87 -896 -245 -84 -58 -235 -211 -291
-294 -124 -184 -195 -401 -225 -685 -19 -179 -19 -1921 0 -2100 41 -385 152
-640 374 -856 176 -171 359 -267 621 -323 198 -42 295 -46 1267 -46 972 0
1069 4 1267 46 262 56 445 152 621 323 222 216 333 471 374 856 19 179 19
1921 0 2100 -31 291 -103 507 -233 696 -58 84 -211 235 -294 291 -179 120
-394 192 -670 224 -92 11 -1711 21 -1915 13z m1690 -414 c208 -10 335 -28 439
-61 256 -81 423 -242 509 -489 69 -197 82 -404 82 -1310 0 -917 -12 -1102 -84
-1312 -44 -130 -85 -196 -182 -292 -96 -97 -162 -138 -292 -182 -210 -72 -395
-84 -1312 -84 -917 0 -1102 12 -1312 84 -130 44 -196 85 -292 182 -97 96 -138
162 -182 292 -72 210 -84 395 -84 1312 0 918 13 1116 85 1318 38 107 66 157
130 236 161 198 390 287 785 305 232 11 1486 12 1710 1z"/>
<path d="M3665 4026 c-60 -28 -127 -98 -146 -152 -52 -152 33 -315 188 -360
132 -38 277 36 328 169 26 70 17 172 -21 234 -75 121 -225 168 -349 109z"/>
<path d="M2355 3714 c-153 -25 -321 -94 -458 -185 -80 -54 -252 -226 -306
-306 -133 -199 -201 -422 -201 -663 0 -312 110 -585 324 -808 101 -105 185
-169 307 -232 173 -89 341 -130 539 -130 198 0 366 41 539 130 122 63 206 127
307 232 214 223 324 496 324 808 0 198 -41 366 -130 539 -63 122 -127 206
-232 307 -175 168 -380 271 -613 309 -110 18 -292 18 -400 -1z m389 -419 c144
-39 251 -99 351 -200 149 -148 219 -321 219 -535 0 -214 -70 -387 -219 -535
-297 -297 -773 -297 -1070 0 -355 354 -275 943 162 1196 156 90 385 121 557
74z"/>
</g>
</svg>
