<?xml version="1.0" encoding="iso-8859-1"?>
<!-- Generator: Adobe Illustrator 19.0.0, SVG Export Plug-In . SVG Version: 6.00 Build 0)  -->
<svg version="1.1" id="Layer_1" xmlns="http://www.w3.org/2000/svg" xmlns:xlink="http://www.w3.org/1999/xlink" x="0px" y="0px"
	 viewBox="0 0 512 512" style="enable-background:new 0 0 512 512;" xml:space="preserve">
<path style="fill:#4C5870;" d="M256,0c-80.408,0-145.592,65.184-145.592,145.592v99.488h48.531v-99.488
	c0-53.52,43.542-97.062,97.062-97.062s97.062,43.542,97.062,97.062v99.488h48.531v-99.488C401.592,65.184,336.408,0,256,0z"/>
<path style="fill:#269AF2;" d="M437.991,220.815h-97.062l-36.398,145.592L340.929,512h97.062c6.673,0,12.133-5.46,12.133-12.133
	V232.948C450.123,226.275,444.664,220.815,437.991,220.815z"/>
<path style="fill:#BEC8D6;" d="M340.929,220.815H74.009c-6.673,0-12.133,5.46-12.133,12.133v266.919
	c0,6.673,5.46,12.133,12.133,12.133h266.919c6.673,0,12.133-5.46,12.133-12.133V232.948
	C353.062,226.275,347.602,220.815,340.929,220.815z"/>
<path style="fill:#4C5870;" d="M243.867,330.009c0-20.103-16.295-36.398-36.398-36.398c-20.101,0-36.398,16.295-36.398,36.398
	c0,12.531,6.333,23.581,15.973,30.129l-15.973,79.065h72.796l-15.973-79.065C237.534,353.591,243.867,342.54,243.867,330.009z"/>
<g>
</g>
<g>
</g>
<g>
</g>
<g>
</g>
<g>
</g>
<g>
</g>
<g>
</g>
<g>
</g>
<g>
</g>
<g>
</g>
<g>
</g>
<g>
</g>
<g>
</g>
<g>
</g>
<g>
</g>
</svg>
