<svg xmlns="http://www.w3.org/2000/svg" data-name="Layer 1" viewBox="0 0 100 125" x="0px" y="0px"><title>123all</title><path d="M81.37,31.25a11.35,11.35,0,0,0-7.58,13l-7.15,2.52A15.14,15.14,0,0,0,54,38l-.45-10.39a11.53,11.53,0,0,0,1.7-.42,11.53,11.53,0,1,0-5.7.35L50,38.26a14.81,14.81,0,0,0-10.29,7.49l-13.4-4.47a11.35,11.35,0,1,0-1.17,3.83l13.1,4.37a14.94,14.94,0,0,0,2.09,12l-5.87,6a11.52,11.52,0,0,0-1.17-.69,11.39,11.39,0,1,0,4.07,3.46L43,64.46a15.07,15.07,0,0,0,14.64,3c.28-.09.55-.21.83-.32l3.8,6.83A11.36,11.36,0,1,0,66,72.45l-4-7.29a15.14,15.14,0,0,0,5.83-14.57L75.25,48a11.36,11.36,0,1,0,6.13-16.73Zm-59.74,12a7.36,7.36,0,1,1-8.88-10.31,7.32,7.32,0,0,1,5.62.42,7.36,7.36,0,0,1,3.26,9.89ZM30.5,83.86a7.36,7.36,0,1,1,4.69-9.3A7.37,7.37,0,0,1,30.5,83.86ZM66,76.59a7.32,7.32,0,0,1,5.62.42A7.36,7.36,0,1,1,66,76.59ZM48.4,23a7.36,7.36,0,1,1,5.62.42A7.31,7.31,0,0,1,48.4,23Zm8,40.64a11.11,11.11,0,1,1,7.08-14A11.12,11.12,0,0,1,56.4,63.63ZM91.5,45.36a7.36,7.36,0,1,1,.42-5.62A7.31,7.31,0,0,1,91.5,45.36Z"/></svg>
