<?xml version="1.0" encoding="iso-8859-1"?>
<!-- Generator: Adobe Illustrator 19.0.0, SVG Export Plug-In . SVG Version: 6.00 Build 0)  -->
<svg version="1.1" id="Capa_1" xmlns="http://www.w3.org/2000/svg" xmlns:xlink="http://www.w3.org/1999/xlink" x="0px" y="0px"
	 viewBox="0 0 448.302 448.302" style="enable-background:new 0 0 448.302 448.302;" xml:space="preserve">
<g>
	<rect x="152.143" y="32" style="fill:#5886C5;" width="16" height="64"/>
	
		<rect x="84.257" y="60.148" transform="matrix(-0.7071 0.7071 -0.7071 -0.7071 222.6497 92.0706)" style="fill:#5886C5;" width="16" height="63.999"/>
	<rect x="32.143" y="152.024" style="fill:#5886C5;" width="64" height="16"/>
	
		<rect x="196.016" y="84.163" transform="matrix(-0.7071 0.7071 -0.7071 -0.7071 454.4161 -3.8994)" style="fill:#5886C5;" width="63.999" height="16"/>
	<rect x="224.143" y="152.024" style="fill:#5886C5;" width="64" height="16"/>
</g>
<path style="fill:#7C4C2B;" d="M248.654,282.237c-27.97,0-40.53,14.045-56.512,30.049V160.302c0-17.601-14.4-32-32-32
	s-32,14.399-32,32v70.143c-10.676-13.104-29.314-15.752-43.152-5.808l-68.912,39.888c-9.519,5.536-15.935,15.792-15.935,27.568
	v52.624c0,57.216,46.368,103.584,103.584,103.584c27.712,0,52.817-10.944,71.392-28.672l109.616-109.472
	C299.784,295.16,270.168,282.237,248.654,282.237z"/>
<g>
	<path style="fill:#53331D;" d="M160.11,158.779v87.111c0,10.577,4.202,20.72,11.681,28.198l9.521,9.52
		c6.614,5.874,10.799,14.432,10.799,23.919V160.301c0-1.83-0.156-3.627-0.455-5.376C188.472,136.307,160.11,139.891,160.11,158.779z
		"/>
	<path style="fill:#53331D;" d="M267.051,284.977l-115.43,115.43c-20.238,20.238-47.686,31.607-76.306,31.607H48.115
		c16.076,10.262,35.121,16.287,55.611,16.287c54.764,0,71.331-28.612,181.008-138.143
		C295.658,299.272,283.012,289.527,267.051,284.977z"/>
</g>
<g>
	<circle style="fill:#FACE5A;" cx="384.159" cy="176.024" r="64"/>
	<circle style="fill:#FACE5A;" cx="320.159" cy="48" r="48"/>
</g>
<g>
	<path style="fill:#E5B751;" d="M350.245,142.086c-18.728,18.728-18.728,49.093,0,67.822l67.822-67.822
		C399.34,123.357,368.974,123.357,350.245,142.086z"/>
	<path style="fill:#E5B751;" d="M297.529,25.37c-12.497,12.497-12.497,32.758,0,45.255l45.254-45.255
		C330.287,12.873,310.026,12.873,297.529,25.37z"/>
</g>
<g>
</g>
<g>
</g>
<g>
</g>
<g>
</g>
<g>
</g>
<g>
</g>
<g>
</g>
<g>
</g>
<g>
</g>
<g>
</g>
<g>
</g>
<g>
</g>
<g>
</g>
<g>
</g>
<g>
</g>
</svg>
