<?xml version="1.0" encoding="iso-8859-1"?>
<!-- Generator: Adobe Illustrator 19.0.0, SVG Export Plug-In . SVG Version: 6.00 Build 0)  -->
<svg version="1.1" id="Layer_1" xmlns="http://www.w3.org/2000/svg" xmlns:xlink="http://www.w3.org/1999/xlink" x="0px" y="0px"
	 viewBox="0 0 511.883 511.883" style="enable-background:new 0 0 511.883 511.883;" xml:space="preserve">
<polygon style="fill:#CCD1D9;" points="341.251,479.885 170.618,479.885 191.894,373.316 319.942,373.285 "/>
<g>
	<path style="fill:#E6E9ED;" d="M511.883,383.909c0,5.905-4.781,10.653-10.67,10.653H10.654C4.78,394.561,0,389.814,0,383.908
		V42.651c0-5.889,4.78-10.653,10.654-10.653h490.559c5.889,0,10.67,4.764,10.67,10.653V383.909z"/>
	<path style="fill:#E6E9ED;" d="M341.251,479.885H170.618c-5.874,0-10.654-4.779-10.654-10.653c0-5.905,4.78-10.686,10.654-10.686
		h170.633c5.889,0,10.669,4.78,10.669,10.686C351.92,475.107,347.139,479.885,341.251,479.885z"/>
</g>
<path style="fill:#656D78;" d="M501.213,31.998H10.654C4.78,31.998,0,36.762,0,42.651v287.926h511.883V42.651
	C511.883,36.762,507.102,31.998,501.213,31.998z"/>
<path style="fill:#434A54;" d="M266.595,362.569c0,5.905-4.765,10.685-10.654,10.685c-5.889,0-10.669-4.779-10.669-10.685
	c0-5.874,4.78-10.653,10.669-10.653C261.83,351.916,266.595,356.695,266.595,362.569z"/>

<!-- <path id="prog1" style="fill:#FC6E51" d="M373.243,74.644H53.317c-5.89,0-10.669,4.78-10.669,10.669c0,5.89,4.78,10.67,10.669,10.67h319.926
	c5.889,0,10.67-4.78,10.67-10.67C383.913,79.424,379.131,74.644,373.243,74.644z">
</path> -->
<rect x="20" y="60" width="100" height="15" rx="7" style="fill:#FC6E51;">
    <animate attributeType="XML" attributeName="width" values="200;470;200"
        dur="6s" repeatCount="indefinite"/>
</rect>

<rect x="20" y="105" width="100" height="15" rx="7" style="fill:#AC92EB;">
    <animate attributeType="XML" attributeName="width" values="100;370;100"
        dur="4s" repeatCount="indefinite"/>
</rect>

<rect x="20" y="150" width="100" height="15" rx="7" style="fill:#48CFAD;">
    <animate attributeType="XML" attributeName="width" values="250;340;250"
        dur="5s" repeatCount="indefinite"/>
</rect>

<rect x="20" y="195" width="100" height="15" rx="7" style="fill:#5D9CEC;">
    <animate attributeType="XML" attributeName="width" values="80;340;80"
        dur="2s" repeatCount="indefinite"/>
</rect>

<rect x="20" y="240" width="100" height="15" rx="7" style="fill:#FFCE54;">
    <animate attributeType="XML" attributeName="width" values="300;370;300"
        dur="3s" repeatCount="indefinite"/>
</rect>

<rect x="20" y="285" width="100" height="15" rx="7" style="fill:#ED5564;">
    <animate attributeType="XML" attributeName="width" values="200;300;200"
        dur="4.5s" repeatCount="indefinite"/>
</rect>

<g>
</g>
<g>
</g>
<g>
</g>
<g>
</g>
<g>
</g>
<g>
</g>
<g>
</g>
<g>
</g>
<g>
</g>
<g>
</g>
<g>
</g>
<g>
</g>
<g>
</g>
<g>
</g>
<g>
</g>
</svg>
