<?xml version="1.0" encoding="iso-8859-1"?>
<!-- Generator: Adobe Illustrator 19.0.0, SVG Export Plug-In . SVG Version: 6.00 Build 0)  -->
<svg version="1.1" id="Layer_1" xmlns="http://www.w3.org/2000/svg" xmlns:xlink="http://www.w3.org/1999/xlink" x="0px" y="0px"
	 viewBox="0 0 487.7 487.7" style="enable-background:new 0 0 487.7 487.7;" xml:space="preserve">
<g>
	<g>
		<path d="M485.6,304c-2.8-6.7-8-11.9-14.7-14.7l-25.7-10.5c4.1-23.2,4.1-46.7,0-69.8l25.6-10.6c6.7-2.8,11.9-8,14.6-14.7
			c2.8-6.7,2.8-14,0-20.7l-13.6-32.8c-4.2-10.2-14-16.7-25-16.7c-3.6,0-7,0.7-10.4,2.1l-25.6,10.6c-13.5-19.2-30.1-35.8-49.4-49.4
			L372,51.2c2.8-6.7,2.8-14,0-20.7c-2.8-6.7-8-11.9-14.7-14.7L324.8,2.2c-3.3-1.4-6.8-2.1-10.4-2.1c-11,0-20.8,6.6-25,16.7
			l-10.6,25.6c-23.1-4-46.8-4-69.8,0l-10.7-25.6c-4.2-10.2-14-16.7-25-16.7c-3.6,0-7,0.7-10.4,2.1l-32.8,13.6
			c-13.8,5.7-20.4,21.6-14.7,35.4L126,76.8c-19.2,13.5-35.8,30.1-49.4,49.4L51,115.6c-3.3-1.4-6.8-2.1-10.4-2.1
			c-11,0-20.8,6.6-25,16.7L2.2,162.8c-2.8,6.7-2.8,14,0,20.7c2.8,6.7,8,11.9,14.7,14.7l25.5,10.6c-4.1,23.2-4.1,46.7,0,69.8
			l-25.6,10.7c-6.7,2.8-11.9,8-14.7,14.7s-2.8,14,0,20.7l13.6,32.8c4.2,10.2,14,16.7,25,16.7c3.6,0,7-0.7,10.4-2.1l25.6-10.6
			c13.5,19.2,30.1,35.8,49.4,49.4l-10.6,25.6c-5.7,13.8,0.9,29.7,14.6,35.4l32.8,13.6c3.3,1.4,6.8,2.1,10.4,2.1
			c11,0,20.8-6.6,25-16.7l10.6-25.6c23.1,4,46.8,4,69.8,0l10.6,25.6c4.2,10.2,14,16.7,25,16.7c3.6,0,7-0.7,10.4-2.1l32.8-13.6
			c13.8-5.7,20.4-21.6,14.7-35.4l-10.6-25.6c19.2-13.5,35.8-30.1,49.4-49.4l25.6,10.6c3.3,1.4,6.8,2.1,10.4,2.1
			c11,0,20.8-6.6,25-16.7l13.6-32.8C488.4,318,488.4,310.7,485.6,304z M474.4,320.1l-13.6,32.8c-2.3,5.7-7.8,9.3-13.9,9.3
			c-2,0-3.9-0.4-5.8-1.2L411,348.5c-2.6-1.1-5.7-0.2-7.3,2.2c-14.1,21.1-31.9,38.9-52.9,52.9c-2.4,1.6-3.3,4.6-2.2,7.3l12.5,30.1
			c3.2,7.7-0.5,16.5-8.2,19.7l-32.8,13.6c-1.8,0.8-3.8,1.2-5.8,1.2c-6.1,0-11.6-3.7-13.9-9.3l-12.5-30.1c-0.9-2.3-3.2-3.7-5.5-3.7
			c-0.4,0-0.8,0-1.2,0.1c-24.6,4.9-50.2,4.9-74.8,0c-2.8-0.6-5.6,0.9-6.7,3.6l-12.5,30.1c-2.3,5.7-7.8,9.3-13.9,9.3
			c-2,0-3.9-0.4-5.8-1.2l-32.8-13.5c-7.7-3.2-11.3-12-8.2-19.7L139,411c1.1-2.6,0.2-5.7-2.2-7.3c-21.1-14.1-38.9-31.9-52.9-52.9
			c-1.6-2.4-4.6-3.3-7.3-2.2l-30.1,12.5c-1.8,0.8-3.8,1.2-5.8,1.2c-6.1,0-11.6-3.7-13.9-9.3l-13.6-32.8c-1.5-3.7-1.5-7.8,0-11.5
			s4.4-6.6,8.2-8.2L51.5,288c2.6-1.1,4.1-3.9,3.6-6.7c-4.9-24.8-4.9-50,0-74.8c0.6-2.8-0.9-5.6-3.6-6.7l-30.1-12.5
			c-3.7-1.5-6.6-4.4-8.2-8.2c-1.5-3.7-1.5-7.8,0-11.5l13.6-32.9c2.3-5.7,7.8-9.3,13.9-9.3c2,0,3.9,0.4,5.8,1.2l30.1,12.5
			c2.6,1.1,5.7,0.2,7.3-2.2C98,115.8,115.8,98,136.8,84c2.4-1.6,3.3-4.6,2.2-7.3l-12.5-30.1c-3.2-7.7,0.5-16.5,8.2-19.7l32.8-13.6
			c1.8-0.8,3.8-1.2,5.8-1.2c6.1,0,11.6,3.7,13.9,9.3l12.5,30.1c1.1,2.6,3.9,4.2,6.7,3.6c24.6-4.9,50.2-4.9,74.8,0
			c2.8,0.6,5.6-0.9,6.7-3.6l12.5-30.1c2.3-5.7,7.8-9.3,13.9-9.3c2,0,3.9,0.4,5.8,1.2l32.8,13.5c3.7,1.5,6.6,4.4,8.2,8.2
			c1.5,3.7,1.5,7.8,0,11.5l-12.5,30.1c-1.1,2.6-0.2,5.7,2.2,7.3c21.1,14.1,38.9,31.9,52.9,52.9c1.6,2.4,4.6,3.3,7.3,2.2l30.1-12.5
			c1.8-0.8,3.8-1.2,5.8-1.2c6.1,0,11.6,3.7,13.9,9.3l13.6,32.8c1.5,3.7,1.5,7.8,0,11.5c-1.5,3.7-4.4,6.6-8.2,8.2l-30.1,12.6
			c-2.6,1.1-4.1,3.9-3.6,6.7c4.9,24.8,4.9,50,0,74.8c-0.6,2.8,0.9,5.6,3.6,6.7l30.1,12.5c3.7,1.5,6.6,4.4,8.2,8.2
			C475.9,312.3,475.9,316.4,474.4,320.1z"/>
	</g>
</g>
<g>
	<g>
		<path d="M336.6,205.4c-15.6-37.7-52-62.1-92.8-62.1c-13.2,0-26.1,2.6-38.4,7.7c-51.2,21.2-75.6,80.1-54.4,131.2
			c15.6,37.7,52,62.1,92.8,62.1c13.2,0,26.1-2.6,38.4-7.7C333.4,315.4,357.8,256.5,336.6,205.4z M277.6,325.5
			c-10.8,4.5-22.2,6.8-33.8,6.8c-35.9,0-68-21.4-81.8-54.6c-18.7-45.1,2.8-96.9,47.9-115.5c10.8-4.5,22.2-6.8,33.8-6.8
			c35.9,0,68,21.4,81.8,54.6C344.2,255,322.7,306.9,277.6,325.5z"/>
	</g>
</g>
<g>
</g>
<g>
</g>
<g>
</g>
<g>
</g>
<g>
</g>
<g>
</g>
<g>
</g>
<g>
</g>
<g>
</g>
<g>
</g>
<g>
</g>
<g>
</g>
<g>
</g>
<g>
</g>
<g>
</g>
</svg>
