<?xml version="1.0" encoding="iso-8859-1"?>
<!-- Generator: Adobe Illustrator 19.0.0, SVG Export Plug-In . SVG Version: 6.00 Build 0)  -->
<svg version="1.1" id="Layer_1" xmlns="http://www.w3.org/2000/svg" xmlns:xlink="http://www.w3.org/1999/xlink" x="0px" y="0px"
	 viewBox="0 0 512 512" style="enable-background:new 0 0 512 512;" xml:space="preserve">
<polygon style="fill:#FEBB8E;" points="52.84,327.455 52.84,512 109.104,512 120.356,327.455 "/>
<g>
	<rect x="109.107" y="327.454" style="fill:#FEAB75;" width="27.007" height="184.545"/>
	<path style="fill:#FEAB75;" d="M60.203,148.536c7.458,0,13.503,6.045,13.503,13.503l22.719,144.739H35.447l11.253-74.972v-69.767
		C46.699,154.581,52.745,148.536,60.203,148.536z"/>
</g>
<path style="fill:#FCD5A2;" d="M127.719,175.542c0-7.458,6.045-13.503,13.503-13.503c7.457,0,13.503,6.045,13.503,13.503v78.769
	L93.64,297.563L127.719,175.542z"/>
<path style="fill:#FEAB75;" d="M100.712,162.039c0-7.458,6.046-13.503,13.503-13.503c7.458,0,13.503,6.045,13.503,13.503v144.739
	H77.993L100.712,162.039z"/>
<path style="fill:#FCD5A2;" d="M87.209,135.033c7.458,0,13.503,6.046,13.503,13.503v156.1H73.706v-156.1
	C73.706,141.079,79.752,135.033,87.209,135.033z"/>
<path style="fill:#FEBB8E;" d="M46.699,254.313l-22.505,45.011l69.767,89.685c34.117-3.387,60.765-32.169,60.765-67.179
	c0-37.288,0-67.516,0-67.516H46.699V254.313z"/>
<path style="fill:#FCD5A2;" d="M87.209,389.345c2.279,0,4.53-0.117,6.752-0.338v-42.421c0-26.103-21.158-47.265-47.261-47.265
	v-67.516c0-7.458-6.046-13.503-13.503-13.503s-13.503,6.046-13.503,13.503v90.023C19.693,359.116,49.921,389.345,87.209,389.345z"/>
<polygon style="fill:#A0613C;" points="375.89,259.939 375.89,512 432.154,512 443.406,259.939 "/>
<g>
	<rect x="432.15" y="259.938" style="fill:#804E30;" width="27.007" height="252.061"/>
	<path style="fill:#804E30;" d="M451.797,81.02c-7.458,0-13.503,6.045-13.503,13.503l-22.719,144.739h60.979l-11.253-74.972V94.523
		C465.301,87.065,459.256,81.02,451.797,81.02z"/>
</g>
<path style="fill:#A0613C;" d="M384.281,108.026c0-7.457-6.045-13.503-13.503-13.503c-7.457,0-13.503,6.046-13.503,13.503v78.77
	l61.085,43.251L384.281,108.026z"/>
<path style="fill:#804E30;" d="M411.288,94.523c0-7.458-6.046-13.503-13.503-13.503c-7.458,0-13.503,6.045-13.503,13.503v144.739
	h49.726L411.288,94.523z"/>
<path style="fill:#A0613C;" d="M424.791,67.516c-7.458,0-13.503,6.046-13.503,13.503v156.1h27.007V81.02
	C438.294,73.562,432.249,67.516,424.791,67.516z"/>
<path style="fill:#BF7447;" d="M465.301,186.796l22.505,45.011l-69.767,89.685c-34.117-3.387-60.765-32.169-60.765-67.179
	c0-37.288,0-67.516,0-67.516h108.026V186.796z"/>
<path style="fill:#DF8853;" d="M424.791,321.829c-2.279,0-4.53-0.117-6.752-0.338v-42.421c0-26.103,21.159-47.265,47.261-47.265
	V164.29c0-7.458,6.046-13.503,13.503-13.503c7.457,0,13.503,6.046,13.503,13.503v90.022
	C492.307,291.6,462.08,321.829,424.791,321.829z"/>
<polygon style="fill:#FEAB75;" points="214.365,192.423 214.365,512 270.629,512 281.881,192.423 "/>
<g>
	<rect x="270.629" y="192.422" style="fill:#FF9B5F;" width="27.007" height="319.577"/>
	<path style="fill:#FF9B5F;" d="M228.993,13.503c7.458,0,13.503,6.045,13.503,13.503l22.719,144.739h-60.979l11.253-74.972V27.007
		C215.49,19.548,221.536,13.503,228.993,13.503z"/>
</g>
<path style="fill:#FEBB8E;" d="M296.51,40.51c0-7.458,6.045-13.503,13.503-13.503c7.457,0,13.503,6.045,13.503,13.503v78.77
	l-61.085,43.251L296.51,40.51z"/>
<path style="fill:#FF9B5F;" d="M269.503,27.007c0-7.458,6.046-13.503,13.503-13.503c7.458,0,13.503,6.045,13.503,13.503v144.739
	h-49.726L269.503,27.007z"/>
<path style="fill:#FEBB8E;" d="M256,0c7.458,0,13.503,6.046,13.503,13.503v156.1h-27.007v-156.1C242.497,6.046,248.543,0,256,0z"/>
<path style="fill:#FEAB75;" d="M215.49,119.28l-22.505,45.011l69.767,89.685c34.117-3.387,60.765-32.169,60.765-67.179
	c0-37.288,0-67.516,0-67.516H215.49V119.28z"/>
<path style="fill:#FEBB8E;" d="M256,254.313c2.279,0,4.53-0.117,6.752-0.338v-42.421c0-26.103-21.158-47.265-47.261-47.265V96.773
	c0-7.458-6.046-13.503-13.503-13.503s-13.503,6.046-13.503,13.503v90.022C188.484,224.083,218.712,254.313,256,254.313z"/>
<g>
</g>
<g>
</g>
<g>
</g>
<g>
</g>
<g>
</g>
<g>
</g>
<g>
</g>
<g>
</g>
<g>
</g>
<g>
</g>
<g>
</g>
<g>
</g>
<g>
</g>
<g>
</g>
<g>
</g>
</svg>
