<?xml version="1.0" encoding="iso-8859-1"?>
<!-- Generator: Adobe Illustrator 19.0.0, SVG Export Plug-In . SVG Version: 6.00 Build 0)  -->
<svg version="1.1" id="Layer_1" xmlns="http://www.w3.org/2000/svg" xmlns:xlink="http://www.w3.org/1999/xlink" x="0px" y="0px"
	 viewBox="0 0 512.001 512.001" style="enable-background:new 0 0 512.001 512.001;" xml:space="preserve">
<path style="fill:#F7B081;" d="M372.78,238.195c-2.659-16.209-11.221-35.529-36.907-35.529c-3.663,0-6.792,2.642-7.405,6.253
	l-4.93,29.01c-1.948,11.461-4.621,22.378-7.942,32.448c-9.197,27.887-20.802,42.181-41.39,50.987
	c-9.892,4.23-17.924,7.849-21.136,9.307h-38.5c-4.15,0-7.512,3.362-7.512,7.512v136.069c0,4.15,3.363,7.512,7.512,7.512h37.472
	l16.143,13.069c13.552,10.972,30.618,17.014,48.056,17.014h45.767c4.15,0,7.512-3.363,7.512-7.512c0-2.807-1.541-5.249-3.82-6.538
	V347.786h-9.344l15.726-79.247C374.145,258.153,374.379,247.945,372.78,238.195z"/>
<path style="fill:#EFE7E4;" d="M214.571,317.153h-58.366c-4.15,0-7.512,3.363-7.512,7.512v160.618c0,4.15,3.363,7.512,7.512,7.512
	h58.366c4.15,0,7.512-3.362,7.512-7.512V324.666C222.084,320.516,218.72,317.153,214.571,317.153z"/>
<path style="fill:#D8D1D0;" d="M148.693,462.862v22.422c0,4.15,3.363,7.512,7.512,7.512h58.366c4.15,0,7.512-3.362,7.512-7.512
	v-22.422H148.693z"/>
<path style="fill:#DD9A76;" d="M345.467,490.358c0-11.953,9.689-21.641,21.642-21.641c-11.953,0-21.642-9.689-21.642-21.643
	c0-11.953,9.689-21.642,21.642-21.642c-11.953,0-21.642-9.69-21.642-21.642c0-11.953,9.689-21.642,21.642-21.642
	c-11.953,0-21.642-9.69-21.642-21.641c0-11.953,9.689-21.643,21.642-21.643h-24.553c-11.953,0-21.642,9.689-21.642,21.643
	c0,11.953,9.689,21.641,21.642,21.641c-11.953,0-21.642,9.69-21.642,21.642c0,11.953,9.689,21.642,21.642,21.642
	c-11.953,0-21.642,9.689-21.642,21.642c0,11.953,9.689,21.643,21.642,21.643c-11.953,0-21.642,9.689-21.642,21.641
	c0,11.953,9.689,21.643,21.642,21.643h24.553C355.156,512,345.467,502.311,345.467,490.358z"/>
<path style="fill:#F7CB4F;" d="M173.124,108.4c-1.666-5.123-6.012-8.786-11.343-9.561l-34.159-4.964l-15.276-30.953
	c-2.385-4.831-7.213-7.832-12.601-7.832c-5.387,0-10.215,3.001-12.6,7.832L71.871,93.875l-34.158,4.964
	c-5.332,0.774-9.678,4.437-11.344,9.561c-1.666,5.123-0.303,10.643,3.555,14.407l24.718,24.093l-5.834,34.02
	c-0.911,5.311,1.231,10.576,5.588,13.744c2.464,1.79,5.345,2.698,8.247,2.698c2.233,0,4.477-0.539,6.552-1.629l30.552-16.062
	l30.552,16.062c4.769,2.507,10.438,2.097,14.796-1.069c4.359-3.166,6.501-8.433,5.59-13.744l-5.835-34.02l24.718-24.095
	C173.428,119.044,174.789,113.524,173.124,108.4z"/>
<path style="fill:#FBAB00;" d="M161.782,98.839l-0.759-0.11L122.4,136.852c-1.984,1.934-2.889,4.72-2.421,7.45l9.1,50.787
	l1.221,0.642c4.769,2.507,10.438,2.097,14.796-1.069c4.359-3.166,6.501-8.433,5.59-13.744l-5.835-34.02l24.718-24.095
	c3.859-3.761,5.221-9.281,3.556-14.406C171.458,103.275,167.112,99.612,161.782,98.839z"/>
<path style="fill:#F7CB4F;" d="M331.151,53.31c-1.666-5.123-6.012-8.786-11.343-9.561l-34.159-4.964L270.375,7.832
	C267.99,3.001,263.162,0,257.775,0c-5.388,0-10.215,3.001-12.6,7.832l-15.276,30.953l-34.158,4.964
	c-5.332,0.773-9.678,4.437-11.344,9.561s-0.303,10.643,3.555,14.407l24.719,24.094l-5.835,34.019
	c-0.911,5.311,1.231,10.576,5.588,13.744c4.359,3.167,10.027,3.576,14.798,1.07l30.552-16.062l30.552,16.062
	c2.074,1.091,4.318,1.629,6.552,1.629c2.902,0,5.783-0.91,8.247-2.698c4.358-3.167,6.5-8.433,5.588-13.743l-5.835-34.02
	l24.72-24.095C331.455,63.954,332.817,58.434,331.151,53.31z"/>
<path style="fill:#FBAB00;" d="M303.125,139.572c4.358-3.167,6.5-8.433,5.588-13.743l-5.835-34.02l24.72-24.095
	c3.857-3.762,5.22-9.282,3.554-14.406c-1.666-5.123-6.012-8.786-11.343-9.561l-0.313-0.045l-39.07,38.057
	c-1.983,1.933-2.889,4.72-2.421,7.45l7.073,41.235l1.694,9.378l1.554,0.816c2.074,1.091,4.318,1.629,6.552,1.629
	C297.78,142.27,300.662,141.361,303.125,139.572z"/>
<path style="fill:#F7CB4F;" d="M488.888,108.4c-1.666-5.123-6.012-8.786-11.343-9.561l-34.159-4.964l-15.276-30.953
	c-2.385-4.831-7.212-7.832-12.6-7.832c-5.388,0-10.215,3.001-12.6,7.832l-15.276,30.953l-34.158,4.964
	c-5.332,0.774-9.678,4.437-11.344,9.561c-1.665,5.124-0.304,10.644,3.556,14.406l24.718,24.095l-5.835,34.019
	c-0.911,5.311,1.231,10.576,5.588,13.744c4.359,3.167,10.026,3.577,14.798,1.07l30.552-16.062l30.552,16.062
	c2.074,1.091,4.318,1.629,6.552,1.629c2.902,0,5.783-0.91,8.247-2.698c4.358-3.167,6.5-8.433,5.588-13.743l-5.835-34.02
	l24.72-24.095C489.192,119.043,490.554,113.523,488.888,108.4z"/>
<path style="fill:#FBAB00;" d="M488.888,108.4c-1.666-5.123-6.012-8.786-11.343-9.561l-0.606-0.088l-38.777,38.101
	c-1.983,1.934-2.889,4.72-2.421,7.45l8.209,50.32l2.111,1.11c2.074,1.091,4.318,1.629,6.552,1.629c2.902,0,5.783-0.91,8.247-2.698
	c4.358-3.167,6.5-8.433,5.588-13.743l-5.835-34.02l24.72-24.095C489.192,119.043,490.554,113.523,488.888,108.4z"/>
<path style="fill:#546F7A;" d="M156.205,301.536H29.926c-4.15,0-7.512,3.363-7.512,7.512v191.854c0,4.15,3.363,7.512,7.512,7.512
	h126.279c4.15,0,7.512-3.363,7.512-7.512V309.048C163.718,304.898,160.355,301.536,156.205,301.536z"/>
<path style="fill:#465A65;" d="M22.414,479.601v21.301c0,4.15,3.363,7.512,7.512,7.512h126.279c4.15,0,7.512-3.363,7.512-7.512
	v-21.301H22.414z"/>
<circle style="fill:#353535;" cx="116.321" cy="462.288" r="11.961"/>
<path style="fill:#FFC89F;" d="M441.255,338.865h-78.257c-13.879,0-25.17,11.291-25.17,25.17v4.212
	c0,13.88,11.291,25.17,25.17,25.17h78.257c13.879,0,25.17-11.291,25.17-25.17v-4.212
	C466.425,350.155,455.135,338.865,441.255,338.865z"/>
<path style="fill:#F7B081;" d="M441.255,369.144h-78.257c-10.315,0-19.195-6.239-23.08-15.14c-1.341,3.075-2.09,6.467-2.09,10.03
	v4.212c0,13.88,11.291,25.17,25.17,25.17h78.257c13.879,0,25.17-11.291,25.17-25.17v-4.212c0-3.564-0.749-6.955-2.09-10.03
	C460.452,362.904,451.57,369.144,441.255,369.144z"/>
<path style="fill:#FFC89F;" d="M450.39,378.392h-87.392c-13.879,0-25.17,11.292-25.17,25.17v4.212c0,13.88,11.291,25.17,25.17,25.17
	h87.392c13.88,0,25.17-11.291,25.17-25.17v-4.212C475.56,389.683,464.27,378.392,450.39,378.392z"/>
<path style="fill:#F7B081;" d="M450.39,408.901h-87.392c-10.36,0-19.275-6.292-23.131-15.254c-1.31,3.045-2.039,6.396-2.039,9.916
	v4.212c0,13.88,11.291,25.17,25.17,25.17h87.392c13.88,0,25.17-11.291,25.17-25.17v-4.213c0-3.52-0.729-6.871-2.039-9.916
	C469.666,402.609,460.75,408.901,450.39,408.901z"/>
<path style="fill:#FFC89F;" d="M439.15,417.92h-74.045c-15.041,0-27.276,12.236-27.276,27.276c0,15.041,12.236,27.276,27.276,27.276
	h74.045c15.041,0,27.276-12.236,27.276-27.276C466.425,430.156,454.189,417.92,439.15,417.92z"/>
<path style="fill:#F7B081;" d="M439.15,447.951h-74.045c-10.632,0-19.856-6.118-24.354-15.016
	c-1.865,3.689-2.923,7.853-2.923,12.261c0,15.041,12.236,27.276,27.276,27.276h74.045c15.041,0,27.276-12.236,27.276-27.276
	c0-4.408-1.058-8.572-2.923-12.261C459.005,441.833,449.781,447.951,439.15,447.951z"/>
<path style="fill:#FFC89F;" d="M418.767,457.447h-53.663c-15.041,0-27.276,12.236-27.276,27.277
	c0,15.041,12.236,27.276,27.276,27.276h53.663c15.041,0,27.277-12.236,27.277-27.276
	C446.044,469.684,433.808,457.447,418.767,457.447z"/>
<path style="fill:#F7B081;" d="M418.767,487.497h-53.663c-10.635,0-19.863-6.122-24.358-15.025
	c-1.862,3.687-2.918,7.847-2.918,12.252c0,15.041,12.236,27.276,27.276,27.276h53.663c15.041,0,27.277-12.236,27.277-27.276
	c0-4.405-1.056-8.565-2.918-12.252C438.63,481.375,429.403,487.497,418.767,487.497z"/>
<g>
</g>
<g>
</g>
<g>
</g>
<g>
</g>
<g>
</g>
<g>
</g>
<g>
</g>
<g>
</g>
<g>
</g>
<g>
</g>
<g>
</g>
<g>
</g>
<g>
</g>
<g>
</g>
<g>
</g>
</svg>
