<svg xmlns="http://www.w3.org/2000/svg" xmlns:xlink="http://www.w3.org/1999/xlink" version="1.1" x="0px" y="0px" viewBox="0 0 100 125" enable-background="new 0 0 100 100" xml:space="preserve"><g><path d="M88.1,61.6c3.9-5.9,6.4-15.8,4.9-23c-0.8-4.2-3.5-7.9-7.6-10c-2.1-1.1-4.4-1.5-6.7-1.5c0.5-4.3,0-9.1-1.8-13.7   c-0.9,0.8-1.8,1.6-2.6,2.4C69.5,10.5,60.7,5.5,53.3,5C49,4.7,44.7,6.4,41.7,9.8c-5.2,5.9-4.7,14.8,1.2,20c5.9,5.2,14.8,4.7,20-1.2   c3.5-3.9,4.4-9.3,2.8-13.9c1.9,1.2,3.6,2.6,5,4.2c-0.9,0.8-1.8,1.6-2.6,2.4c3.1,1,6.3,2.9,8.9,6c-4.5,0.6-8.5,3.4-10.7,7.7   c-3.5,7-0.7,15.5,6.3,19c4.7,2.4,10.1,1.8,14.2-0.9c-0.6,2.1-1.6,4.1-2.8,5.9c-1-0.6-2-1.3-3-1.9C81,60.3,80,63.7,77.9,67   c-1.8-1.5-3.9-2.6-6.4-3.1c-7.7-1.6-15.2,3.3-16.8,11c-1.1,5.2,0.8,10.2,4.5,13.5c-2.2-0.1-4.4-0.5-6.5-1.2   c0.4-1.1,0.7-2.2,1.1-3.3c-3.4,0.7-7.5,0.5-11.5-1c2-3.2,2.7-7.1,1.6-11c-2-7.6-9.8-12.1-17.3-10.1c-5.1,1.4-8.8,5.3-10.1,10   c-0.9-2-1.5-4.1-1.9-6.3c1.2-0.2,2.3-0.3,3.5-0.5c-2.4-3-4.2-7.2-4.3-12.1c-3.5,3.5-6.1,8.2-7.3,13.8c1.2-0.2,2.3-0.3,3.5-0.5   c1,7,5.7,16,11.5,20.5c3.4,2.6,7.9,3.6,12.3,2.4c3.3-0.9,5.9-2.8,7.8-5.3c1.7,4.1,4.5,8.1,8.5,11.2c0.4-1.1,0.7-2.2,1.1-3.3   c6.7,2.2,16.9,2.1,23.5-1.1c3.8-1.9,6.7-5.4,7.7-9.9c0.9-4.4-0.3-8.8-3-12c4-0.7,7.9-2.4,11.6-5.1C90,62.9,89.1,62.2,88.1,61.6z    M60.8,26.8c-4.2,4.7-11.4,5.1-16.1,1c-4.7-4.2-5.1-11.4-1-16.1c4.2-4.7,11.4-5.1,16.1-1C64.5,14.9,65,22.1,60.8,26.8z M33.2,86.4   c-6.1,1.6-12.3-2-13.9-8.1c-1.6-6.1,2-12.3,8.1-13.9c6.1-1.6,12.3,2,13.9,8.1C42.9,78.5,39.3,84.8,33.2,86.4z M79.8,80.1   c-1.3,6.2-7.3,10.1-13.5,8.8c-6.2-1.3-10.1-7.3-8.8-13.5c1.3-6.2,7.3-10.1,13.5-8.8C77.1,67.9,81.1,73.9,79.8,80.1z M74,51.4   c-5.6-2.8-7.9-9.6-5.1-15.3c2.8-5.6,9.6-7.9,15.3-5.1c5.6,2.8,7.9,9.6,5.1,15.3C86.4,52,79.6,54.3,74,51.4z"/></g></svg>
