<svg xmlns="http://www.w3.org/2000/svg" xmlns:xlink="http://www.w3.org/1999/xlink" version="1.1" x="0px" y="0px" viewBox="0 0 100 125" style="enable-background:new 0 0 100 100;" xml:space="preserve"><g><path d="M83.7,77.4c-2.4-13-13.7-22.5-26.9-22.5H43.1C29.6,54.9,18.1,64.7,16,78v0c-1.1,6.7,4.1,12.7,10.8,12.7H73   c6.8,0,12-6.2,10.8-12.9L83.7,77.4z M80.7,86.1c-1.9,2.3-4.7,3.6-7.6,3.6H26.9c-2.9,0-5.7-1.3-7.6-3.5c-1.9-2.2-2.7-5.1-2.3-8   c2-12.9,13-22.3,26.1-22.3h13.7c12.7,0,23.7,9.1,26,21.6l0.1,0.4C83.4,80.9,82.6,83.8,80.7,86.1z"/><path d="M36.5,44.2c4,4,9.2,6,14.4,6c5,0,10.1-1.9,14-5.6l0.2-0.2c6.9-6.6,7.6-17.3,1.5-24.7l0,0c-4.1-4.9-9.9-7.4-15.7-7.4v1   c5.8,0,11.2,2.6,14.9,7c5.7,6.9,5.1,17.2-1.4,23.3l-0.2,0.2c-3.6,3.4-8.3,5.3-13.3,5.3c-5.2,0-10-2-13.7-5.7l-0.1-0.1   c-6.1-6.1-6.7-15.8-1.4-22.6c3.7-4.7,9.2-7.4,15.3-7.4l0-1c0,0,0,0,0,0c-6,0-12,2.6-16,7.8l0,0c-5.6,7.2-5,17.5,1.5,24L36.5,44.2z"/></g></svg>
