<svg xmlns="http://www.w3.org/2000/svg" xmlns:xlink="http://www.w3.org/1999/xlink" version="1.1" x="0px" y="0px" viewBox="0 0 100 125" enable-background="new 0 0 100 100" xml:space="preserve"><g><g><path d="M91.928,34.073l-0.673-7.04l-3.144,0.301l-1.34-6.944l-3.1,0.598l-1.995-6.787L7.762,35.939l5.335,18.143    c-0.066-0.001-0.13-0.009-0.196-0.009c-4.311,0-7.817,3.507-7.817,7.817c0,3.184,1.915,5.924,4.65,7.143    c-0.092,0.434-0.143,0.883-0.143,1.344c0,3.555,2.892,6.443,6.445,6.443c2.584,0,4.812-1.531,5.838-3.731h73.209V34.073H91.928z     M94.096,58.334v0.379v3.229v3.518v0.496V72.1H29.829h-5.097h-0.095h-1.55H22.24c0.002-0.007,0.004-0.016,0.006-0.022    c0.023-0.083,0.045-0.166,0.064-0.25c0.001-0.005,0.003-0.009,0.004-0.015c0.02-0.088,0.038-0.174,0.055-0.264    c0.017-0.093,0.03-0.188,0.043-0.281c0.041-0.291,0.069-0.588,0.069-0.891c0-2.084-0.998-3.936-2.537-5.113    c0.492-1.021,0.775-2.162,0.775-3.371c0-1.83-0.635-3.508-1.689-4.841V45.026V42.68v-2.134v-2.673v-2.811h21.717h0.565h0.603    h4.317h0.848h1.02h7.476h1.074h0.156h0.65h0.17h0.469h21.596h6.683h0.405h0.517h0.517h0.783H89.1h0.504h1.426h0.496h0.498h2.072    v21.686V58.334z M20.763,73.089c-0.943,1.638-2.707,2.743-4.727,2.743c-3.008,0-5.456-2.447-5.456-5.455    c0-0.34,0.035-0.671,0.095-0.995c0.03-0.162,0.068-0.321,0.113-0.479c0.045-0.159,0.098-0.316,0.157-0.471    c0.05-0.132,0.106-0.262,0.167-0.389c0.073-0.154,0.152-0.304,0.239-0.448c0.09-0.151,0.186-0.296,0.29-0.437    c0.994-1.354,2.591-2.237,4.395-2.237c0.085,0,0.168,0.009,0.252,0.013c0.179,0.01,0.356,0.025,0.53,0.051    c0.032,0.005,0.065,0.01,0.097,0.015c0.124,0.021,0.247,0.044,0.368,0.071c0.028,0.007,0.056,0.016,0.083,0.021    c0.024,0.006,0.049,0.014,0.074,0.02c0.02,0.006,0.041,0.011,0.061,0.017c0.098,0.027,0.195,0.058,0.292,0.09    c0.062,0.021,0.123,0.044,0.185,0.067c0.012,0.005,0.025,0.009,0.037,0.014c0.009,0.004,0.017,0.008,0.026,0.01    c0.074,0.028,0.147,0.061,0.219,0.094c0.093,0.041,0.184,0.084,0.274,0.131c0,0.001,0.001,0.001,0.001,0.001    c0.034,0.018,0.069,0.032,0.103,0.051c0.135,0.073,0.264,0.154,0.392,0.238c0.01,0.007,0.022,0.013,0.033,0.02    c0.137,0.093,0.269,0.19,0.396,0.293c1.238,1.001,2.033,2.531,2.033,4.243c0,0.413-0.05,0.814-0.138,1.201    c-0.014,0.061-0.03,0.115-0.045,0.175c-0.015,0.058-0.028,0.116-0.045,0.173c-0.018,0.061-0.037,0.116-0.056,0.174    c-0.005,0.015-0.01,0.027-0.015,0.043c-0.017,0.049-0.036,0.099-0.054,0.146c-0.019,0.051-0.035,0.102-0.055,0.15    c-0.021,0.053-0.045,0.104-0.068,0.154c-0.02,0.045-0.043,0.09-0.064,0.133c-0.018,0.039-0.035,0.076-0.054,0.112    c-0.02,0.04-0.037,0.081-0.058,0.12C20.816,73.004,20.789,73.046,20.763,73.089z M12.901,55.062c0.166,0,0.329,0.014,0.491,0.024    c0.18,0.013,0.357,0.034,0.534,0.06c0.185,0.028,0.366,0.062,0.546,0.104c0.202,0.049,0.399,0.104,0.594,0.168    c0.185,0.062,0.367,0.129,0.543,0.206c0.19,0.082,0.376,0.171,0.556,0.27c0.165,0.09,0.325,0.189,0.482,0.293    c0.185,0.121,0.362,0.252,0.534,0.391c0.188,0.152,0.371,0.312,0.542,0.484c0.111,0.108,0.214,0.229,0.317,0.348    c0.176,0.199,0.343,0.408,0.495,0.629c0.187,0.271,0.348,0.562,0.495,0.859c0.444,0.904,0.701,1.918,0.701,2.994    c0,1.006-0.225,1.961-0.619,2.822c-0.027-0.015-0.055-0.025-0.082-0.04c-0.096-0.051-0.195-0.097-0.294-0.142    c0.113-0.248,0.213-0.501,0.294-0.764c0.183-0.596,0.282-1.226,0.282-1.879c0-0.654-0.099-1.283-0.282-1.879    c-0.126-0.41-0.292-0.806-0.495-1.178c-0.146-0.268-0.314-0.518-0.495-0.759c-0.081-0.109-0.163-0.218-0.25-0.321    c-0.171-0.202-0.357-0.391-0.551-0.57c-0.172-0.158-0.352-0.306-0.539-0.444c-0.139-0.104-0.281-0.198-0.428-0.29    c-0.182-0.113-0.37-0.217-0.564-0.312c-0.179-0.087-0.362-0.166-0.549-0.236c-0.18-0.067-0.362-0.129-0.549-0.18    c-0.182-0.053-0.366-0.096-0.553-0.13c-0.178-0.032-0.356-0.062-0.539-0.079c-0.203-0.02-0.408-0.029-0.616-0.029    c-3.534,0-6.409,2.875-6.409,6.41c0,2.562,1.515,4.771,3.694,5.797c-0.059,0.127-0.112,0.256-0.162,0.387    c-2.33-1.088-3.951-3.448-3.951-6.184C6.073,58.125,9.136,55.062,12.901,55.062z M81.007,15.43l1.69,5.747l-5.102,0.984    c-0.893-0.67-2.072-0.936-3.227-0.596c-0.914,0.268-1.635,0.867-2.092,1.623l-51.353,9.911L81.007,15.43z M85.986,21.548    l1.137,5.88l-1.514,0.146l-0.502,0.048l-0.502,0.048l-2.652,0.253c-0.824-0.753-1.977-1.129-3.157-0.901    c-0.135,0.026-0.258,0.076-0.386,0.116c-0.762,0.236-1.396,0.695-1.848,1.301l-1.989,0.189L52.17,30.77l-1.408,0.135l-5.128,0.49    l-1.389,0.133l-19.746,1.888l47.345-9.138l6.563-1.266l4.569-0.882l0.487-0.094l0.488-0.094L85.986,21.548z M90.364,28.112    l0.569,5.96h-1.521h-0.505h-0.503H87.52h-0.517h-0.517H85.74c-0.749-0.827-1.858-1.312-3.057-1.196    c-0.137,0.013-0.266,0.051-0.396,0.079c-0.779,0.162-1.456,0.558-1.962,1.117h-2.002H57.238h-0.706h-0.675h-0.026h-1.422h-5.157    h-1.393h-5.154h-0.674h-0.606H28.019l14.7-1.405l0.844-0.081l1.016-0.098l7.476-0.714l1.035-0.099l0.943-0.09l21.99-2.103    l6.653-0.636l2.214-0.211l0.5-0.048l0.502-0.048l1.418-0.136l0.494-0.047l0.494-0.047L90.364,28.112z M17.763,64.174    c-0.12-0.033-0.239-0.066-0.361-0.093c-0.055-0.013-0.111-0.022-0.167-0.033c-0.061-0.012-0.123-0.019-0.184-0.028    c-0.111-0.017-0.221-0.039-0.334-0.051c-0.066-0.007-0.134-0.008-0.2-0.013c-0.16-0.013-0.318-0.024-0.48-0.024    c-0.014,0-0.028,0.002-0.042,0.002c-2.224,0.016-4.182,1.16-5.33,2.892c-1.875-0.854-3.184-2.741-3.184-4.933    c0-2.99,2.432-5.422,5.42-5.422c0.315,0,0.623,0.032,0.923,0.084c0.188,0.032,0.372,0.074,0.553,0.125    c0.195,0.055,0.387,0.119,0.573,0.195c0.149,0.061,0.294,0.13,0.437,0.203c0.196,0.102,0.387,0.213,0.568,0.338    c0.211,0.145,0.408,0.307,0.596,0.479c0.098,0.09,0.194,0.184,0.286,0.279c0.205,0.217,0.396,0.447,0.563,0.695    c0.257,0.382,0.461,0.799,0.615,1.238c0.008,0.023,0.018,0.045,0.025,0.069c0.181,0.539,0.282,1.113,0.282,1.714    c0,0.266-0.026,0.523-0.063,0.778c-0.046,0.321-0.119,0.636-0.219,0.935c-0.046,0.139-0.093,0.272-0.149,0.405    c-0.026,0.06-0.058,0.116-0.085,0.177C17.792,64.182,17.777,64.18,17.763,64.174z M18.041,38.203v6.487v11.326    c-0.146-0.129-0.296-0.25-0.452-0.365L16.364,42.84l-0.203-2.126l-0.522-5.458l2.401-0.229L18.041,38.203L18.041,38.203z     M14.651,35.316l1.88,19.655c-0.196-0.102-0.396-0.199-0.599-0.287l-3.65-18.911L14.651,35.316z M11.304,35.928l3.552,18.402    c-0.229-0.061-0.461-0.107-0.698-0.146L8.99,36.609L11.304,35.928z"/><path d="M25.784,45.658c0.612,0.458,1.364,0.741,2.188,0.741c2.022,0,3.663-1.64,3.663-3.663c0-2.021-1.64-3.661-3.663-3.661    c-0.175,0-0.342,0.028-0.51,0.052c-0.655,0.092-1.249,0.354-1.745,0.744c-0.852,0.67-1.409,1.698-1.409,2.865    c0,0.636,0.177,1.225,0.461,1.746C25.022,44.943,25.365,45.344,25.784,45.658z"/><path d="M82.387,43.254c0.02,0.126,0.04,0.251,0.07,0.373c0.01,0.038,0.023,0.073,0.034,0.11c0.034,0.122,0.065,0.246,0.112,0.361    c0.062,0.157,0.146,0.303,0.229,0.448c0.384,0.669,0.962,1.208,1.67,1.525c0.348,0.156,0.725,0.247,1.119,0.288    c0.124,0.013,0.247,0.038,0.375,0.038c0.236,0,0.465-0.027,0.689-0.07c1.262-0.24,2.285-1.129,2.729-2.307    c0.119-0.32,0.189-0.66,0.217-1.015c0.008-0.091,0.027-0.179,0.027-0.271c0-0.832-0.288-1.589-0.756-2.204    c-0.209-0.274-0.452-0.518-0.729-0.724c-0.609-0.455-1.359-0.733-2.18-0.733c-0.137,0-0.268,0.026-0.4,0.041    c-0.599,0.066-1.158,0.259-1.636,0.579c-0.13,0.087-0.244,0.193-0.36,0.295c-0.068,0.059-0.144,0.111-0.207,0.176    c-0.16,0.162-0.306,0.338-0.435,0.528c-0.394,0.583-0.623,1.286-0.623,2.042c0,0.009,0.003,0.017,0.003,0.026    C82.339,42.93,82.364,43.092,82.387,43.254z"/><path d="M71.689,61.396h-0.496h-5.436c0.381-0.67,0.708-1.387,0.986-2.137c0.072-0.189,0.141-0.381,0.204-0.574    c0.054-0.164,0.102-0.334,0.149-0.5c0.006-0.022,0.014-0.045,0.021-0.065c0.032-0.117,0.071-0.229,0.104-0.349    c0.01-0.041,0.024-0.08,0.035-0.121c0.031-0.127,0.053-0.26,0.081-0.387c0.011-0.046,0.019-0.094,0.028-0.14    c0.027-0.122,0.054-0.244,0.076-0.367c0.199-1.021,0.315-2.082,0.315-3.178c0-0.163-0.016-0.322-0.021-0.484    c-0.002-0.065-0.006-0.132-0.008-0.196c-0.006-0.104-0.008-0.209-0.015-0.312c-0.003-0.062-0.003-0.126-0.008-0.188    c-0.006-0.107-0.011-0.215-0.021-0.321c-0.006-0.06-0.017-0.115-0.022-0.175c-0.134-1.342-0.423-2.626-0.851-3.821    c-0.058-0.157-0.121-0.308-0.183-0.461c-0.062-0.154-0.116-0.312-0.182-0.462c-0.493-1.137-1.114-2.175-1.836-3.095    c-0.378-0.48-0.784-0.923-1.216-1.332c-0.129-0.124-0.26-0.246-0.395-0.363c-0.25-0.216-0.508-0.417-0.771-0.608    c-0.051-0.037-0.1-0.076-0.15-0.112c-0.201-0.141-0.409-0.27-0.619-0.396c-0.134-0.081-0.266-0.165-0.402-0.239    c-0.19-0.103-0.388-0.192-0.582-0.283c-0.203-0.093-0.403-0.193-0.61-0.272c-1.046-0.397-2.157-0.613-3.31-0.613    c-6.114,0-11.092,6.041-11.189,13.511c-0.001,0.074-0.009,0.146-0.009,0.223c0,0.099,0.011,0.193,0.012,0.293    c0.001,0.092,0.008,0.182,0.011,0.273c0.003,0.078,0.006,0.156,0.01,0.234c0.006,0.125,0.007,0.251,0.015,0.376    c0,0.009,0,0.017,0.001,0.024c0.007,0.101,0.012,0.203,0.021,0.305c0.01,0.111,0.029,0.221,0.041,0.329    c0.023,0.21,0.047,0.418,0.078,0.623c0.006,0.044,0.01,0.088,0.017,0.131c0.022,0.146,0.05,0.289,0.076,0.435    c0.003,0.019,0.008,0.034,0.011,0.053c0.021,0.111,0.046,0.221,0.069,0.33c0.011,0.052,0.021,0.104,0.032,0.154    c0.09,0.409,0.195,0.811,0.314,1.204c0.008,0.028,0.017,0.056,0.025,0.084c0.037,0.119,0.068,0.241,0.107,0.359    c0.013,0.038,0.021,0.077,0.034,0.114c0.043,0.123,0.097,0.242,0.142,0.365c0.013,0.032,0.026,0.064,0.039,0.096    c0.049,0.13,0.098,0.257,0.15,0.383c0.182,0.439,0.378,0.867,0.595,1.277c0.066,0.125,0.131,0.25,0.201,0.371H45.24h-5.031h-0.198    v1.01v0.505v0.503v1.109v0.943v0.625v0.516v0.517v0.333h3.559h2.611h2.611h19.212h4.826v-0.461v-4.18v-0.502v-0.5v-0.414h-0.645    H71.689L71.689,61.396z M71.842,62.386v0.038v0.08v0.504v3.46H60.398h-1.412h-4.846h-0.225h-1.189h-1.42h-2.612H42.24h-1.239    v-0.151v-0.516v-0.429v-0.496v-0.497v-1.156v-0.504v-0.333h1.726h2.611h2.641h0.605h0.615h0.972h1.028h1.314h0.1h1.754h1.753    h1.766h1.282h0.986h1.695h2.077h0.614h0.604h1.898h2.798H71.842z M46.404,54.85c-0.02-0.248-0.023-0.502-0.031-0.756    c-0.005-0.17-0.021-0.337-0.021-0.509c0-0.002,0-0.003,0-0.005c0-0.175,0.016-0.344,0.021-0.518    c0.22-6.786,4.7-12.227,10.189-12.227c1.289,0,2.519,0.312,3.653,0.858c0.198,0.095,0.394,0.196,0.586,0.307    c0.189,0.108,0.38,0.217,0.562,0.339c0.267,0.178,0.522,0.374,0.774,0.579c0.25,0.204,0.488,0.422,0.723,0.652    c0.236,0.233,0.464,0.479,0.684,0.737c0.071,0.084,0.148,0.161,0.219,0.248c0.403,0.502,0.769,1.053,1.101,1.633    c0.229,0.401,0.446,0.815,0.64,1.249c0.066,0.151,0.123,0.307,0.186,0.461c0.035,0.086,0.067,0.174,0.102,0.262    c0.025,0.067,0.055,0.132,0.077,0.2c0.421,1.163,0.706,2.415,0.829,3.729c0.009,0.092,0.021,0.182,0.027,0.271    c0.006,0.074,0.004,0.15,0.008,0.226c0.007,0.095,0.009,0.19,0.012,0.285c0.004,0.071,0.007,0.144,0.009,0.215    c0.003,0.099,0.011,0.196,0.013,0.295c0.002,0.066,0.008,0.132,0.008,0.197c0,1.134-0.129,2.229-0.354,3.274    c-0.033,0.157-0.059,0.317-0.098,0.474c-0.004,0.011-0.004,0.022-0.008,0.034c-0.041,0.17-0.099,0.332-0.146,0.498    c-0.001,0.005-0.002,0.009-0.003,0.013c-0.05,0.175-0.098,0.351-0.152,0.522c-0.007,0.018-0.012,0.037-0.018,0.056    c-0.064,0.196-0.143,0.386-0.217,0.579c-0.073,0.193-0.143,0.393-0.225,0.582c-0.271,0.63-0.593,1.224-0.943,1.783H61.48h-0.768    h-0.835h-0.396h-1.754h-1.754h-5.514h-0.004h-0.896h-0.774h-0.272c-0.023-0.037-0.045-0.076-0.069-0.113    c-0.072-0.118-0.145-0.236-0.214-0.357c-0.018-0.031-0.039-0.062-0.057-0.095c-0.211-0.38-0.411-0.771-0.589-1.181    c-0.022-0.051-0.039-0.105-0.061-0.156c-0.044-0.105-0.083-0.217-0.125-0.321c-0.011-0.028-0.021-0.057-0.033-0.084    c-0.051-0.133-0.105-0.261-0.153-0.396c-0.008-0.023-0.018-0.045-0.026-0.068c-0.052-0.148-0.095-0.303-0.142-0.454    c-0.002-0.006-0.003-0.013-0.005-0.019c-0.022-0.073-0.043-0.147-0.065-0.221c-0.062-0.212-0.127-0.421-0.18-0.636    c-0.028-0.112-0.046-0.229-0.071-0.342c-0.036-0.16-0.069-0.322-0.1-0.485c-0.002-0.009-0.004-0.017-0.006-0.025    c-0.023-0.127-0.051-0.252-0.071-0.379c-0.004-0.026-0.006-0.055-0.01-0.082c-0.027-0.176-0.044-0.355-0.066-0.535    C46.451,55.247,46.419,55.051,46.404,54.85z"/><polygon points="79.66,55.199 79.66,55.463 79.66,55.693 79.66,56.188 85.227,56.188 89.02,56.188 90.083,56.188 90.083,55.693     90.083,55.199 80.557,55.199   "/><polygon points="79.66,58.859 79.66,59.354 79.66,59.85 82.982,59.85 85.596,59.85 88.205,59.85 90.083,59.85 90.083,59.486     90.083,59.354 90.083,58.982 90.083,58.859 88.107,58.859   "/><polygon points="79.66,63.018 79.66,63.511 90.083,63.511 90.083,63.018 90.083,62.521 79.66,62.521   "/><polygon points="30.125,55.199 29.032,55.199 24.451,55.199 24.451,55.639 24.451,55.693 24.451,56.188 26.763,56.188     28.515,56.188 30.267,56.188 32.089,56.188 32.359,56.188 34.873,56.188 34.873,55.693 34.873,55.199 30.971,55.199   "/><polygon points="30.656,58.859 29.204,58.859 24.451,58.859 24.451,59.314 24.451,59.354 24.451,59.85 27.294,59.85 29.046,59.85     30.797,59.85 32.442,59.85 33.064,59.85 34.873,59.85 34.873,59.354 34.873,58.859 32.048,58.859   "/><polygon points="24.451,62.521 24.451,62.995 24.451,63.018 24.451,63.511 34.873,63.511 34.873,63.018 34.873,62.521     29.39,62.521   "/><path d="M20.573,72.174c0.014-0.038,0.021-0.076,0.035-0.115c0.011-0.029,0.018-0.062,0.029-0.093    c0.017-0.047,0.029-0.096,0.045-0.143c0.015-0.05,0.031-0.097,0.044-0.146s0.033-0.096,0.045-0.144    c0.091-0.374,0.154-0.757,0.154-1.158c0-1.528-0.719-2.877-1.82-3.774c-0.104-0.084-0.198-0.179-0.308-0.254    c-0.016-0.011-0.029-0.021-0.044-0.031c-0.124-0.084-0.263-0.145-0.395-0.215c-0.003-0.002-0.007-0.004-0.011-0.006    c-0.001-0.002-0.004-0.004-0.006-0.005c-0.112-0.06-0.219-0.13-0.336-0.183c-0.04-0.018-0.079-0.037-0.12-0.053    c-0.002-0.002-0.006-0.002-0.008-0.002c-0.006-0.004-0.012-0.004-0.018-0.006c-0.098-0.041-0.204-0.062-0.304-0.096    c-0.05-0.018-0.101-0.031-0.151-0.047c-0.013-0.005-0.026-0.009-0.039-0.014c-0.017-0.004-0.033-0.01-0.05-0.016    c-0.076-0.021-0.146-0.052-0.223-0.068c-0.071-0.017-0.143-0.023-0.215-0.036c-0.023-0.005-0.048-0.003-0.071-0.009    c-0.161-0.025-0.325-0.039-0.491-0.049c-0.094-0.006-0.183-0.027-0.279-0.027c-1.593,0-2.998,0.777-3.891,1.962    c-0.098,0.129-0.188,0.262-0.273,0.401c-0.082,0.133-0.155,0.271-0.224,0.412c-0.057,0.116-0.113,0.232-0.161,0.355    c-0.055,0.142-0.095,0.29-0.136,0.438c-0.041,0.146-0.087,0.288-0.114,0.439c-0.053,0.286-0.089,0.579-0.089,0.88    c0,2.694,2.193,4.888,4.888,4.888c1.778,0,3.322-0.965,4.178-2.387c0.02-0.033,0.036-0.068,0.055-0.102    c0.017-0.028,0.033-0.061,0.048-0.09c0.016-0.026,0.031-0.054,0.044-0.08c0.033-0.062,0.071-0.121,0.101-0.186    c0.02-0.044,0.05-0.082,0.069-0.128C20.548,72.256,20.557,72.213,20.573,72.174z M19.102,72.878    c-0.004,0.005-0.007,0.009-0.011,0.011c-0.011,0.016-0.021,0.028-0.033,0.043c-0.021,0.025-0.042,0.051-0.064,0.077    c-0.729,0.818-1.778,1.345-2.958,1.345c-2.192,0-3.976-1.785-3.976-3.977c0-0.236,0.03-0.469,0.07-0.695    c0.027-0.151,0.072-0.297,0.116-0.442c0.044-0.147,0.083-0.3,0.144-0.438c0.055-0.129,0.13-0.244,0.198-0.365    c0.087-0.152,0.18-0.301,0.286-0.44c0.118-0.156,0.238-0.312,0.377-0.448c0.718-0.706,1.701-1.146,2.785-1.146    c0.09,0,0.174,0.021,0.262,0.027c0.099,0.006,0.197,0.018,0.293,0.029c0.104,0.016,0.208,0.021,0.309,0.045    c0.057,0.014,0.109,0.036,0.165,0.053c0.011,0.002,0.022,0.006,0.034,0.008c0.099,0.029,0.197,0.059,0.293,0.093    c0.035,0.013,0.071,0.02,0.106,0.032c0.02,0.01,0.042,0.012,0.062,0.021c0.023,0.009,0.043,0.021,0.066,0.029    c0.05,0.021,0.093,0.054,0.143,0.078c0.04,0.018,0.078,0.041,0.117,0.062c0.032,0.018,0.063,0.033,0.094,0.051    c0.032,0.02,0.066,0.034,0.098,0.053c0.035,0.021,0.072,0.035,0.105,0.059c0.055,0.035,0.106,0.07,0.158,0.109    c0.045,0.031,0.083,0.07,0.127,0.104c0.026,0.021,0.05,0.041,0.075,0.062c0.085,0.069,0.175,0.134,0.254,0.211    c0.747,0.723,1.216,1.731,1.216,2.852c0,0.52-0.106,1.012-0.288,1.465c-0.004,0.012-0.006,0.022-0.01,0.032    c-0.005,0.015-0.007,0.029-0.013,0.042c-0.007,0.018-0.018,0.033-0.025,0.05c-0.066,0.148-0.149,0.287-0.232,0.425    c-0.001,0.004-0.002,0.006-0.004,0.008c0,0.002-0.001,0.002-0.001,0.004c-0.004,0.007-0.007,0.015-0.011,0.021    C19.331,72.583,19.221,72.732,19.102,72.878z"/></g></g></svg>
